<mxfile modified="2020-09-30T15:35:42.614Z" host="app.diagrams.net" agent="5.0 (Windows NT 10.0; Win64; x64) AppleWebKit/537.36 (KHTML, like Gecko) Chrome/85.0.4183.121 Safari/537.36" etag="fCrsZrxxALFtwsJHFIU4" version="13.7.6" type="github" pages="8">
  <diagram id="Ht1M8jgEwFfnCIfOTk4-" name="Page-1">
    <mxGraphModel dx="1422" dy="832" grid="1" gridSize="10" guides="1" tooltips="1" connect="1" arrows="1" fold="1" page="1" pageScale="1" pageWidth="1169" pageHeight="827" math="0" shadow="0">
      <root>
        <mxCell id="0" />
        <mxCell id="1" parent="0" />
        <mxCell id="-QjtrjUzRDEMRZ5MF8oH-14" value="Amazon SageMaker" style="whiteSpace=wrap;html=1;fillColor=none;fontSize=14;fontColor=#000000;dashed=0;fontStyle=0;align=center;verticalAlign=top;strokeColor=#D86613;gradientColor=none;spacingLeft=0;labelPosition=center;verticalLabelPosition=bottom;" parent="1" vertex="1">
          <mxGeometry x="872.5" y="174.5" width="232" height="160" as="geometry" />
        </mxCell>
        <mxCell id="SCVMTBWpLvtzJIhz15lM-34" value="" style="whiteSpace=wrap;html=1;fillColor=none;fontSize=14;fontColor=#000000;dashed=0;fontStyle=0;align=center;verticalAlign=top;strokeColor=#CCCCCC;gradientColor=none;spacingLeft=0;labelPosition=center;verticalLabelPosition=bottom;" parent="1" vertex="1">
          <mxGeometry x="882.5" y="257.5" width="210" height="70" as="geometry" />
        </mxCell>
        <mxCell id="-QjtrjUzRDEMRZ5MF8oH-1" value="" style="outlineConnect=0;fontColor=#232F3E;gradientColor=none;fillColor=#277116;strokeColor=none;dashed=0;verticalLabelPosition=bottom;verticalAlign=top;align=center;html=1;fontSize=12;fontStyle=0;aspect=fixed;pointerEvents=1;shape=mxgraph.aws4.door_lock;" parent="1" vertex="1">
          <mxGeometry x="64.5" y="260.5" width="78" height="78" as="geometry" />
        </mxCell>
        <mxCell id="-QjtrjUzRDEMRZ5MF8oH-2" value="" style="outlineConnect=0;fontColor=#232F3E;gradientColor=none;fillColor=#277116;strokeColor=none;dashed=0;verticalLabelPosition=bottom;verticalAlign=top;align=center;html=1;fontSize=12;fontStyle=0;aspect=fixed;pointerEvents=1;shape=mxgraph.aws4.car;" parent="1" vertex="1">
          <mxGeometry x="64.5" y="356" width="78" height="78" as="geometry" />
        </mxCell>
        <mxCell id="-QjtrjUzRDEMRZ5MF8oH-3" value="" style="outlineConnect=0;fontColor=#232F3E;gradientColor=none;fillColor=#277116;strokeColor=none;dashed=0;verticalLabelPosition=bottom;verticalAlign=top;align=center;html=1;fontSize=12;fontStyle=0;aspect=fixed;pointerEvents=1;shape=mxgraph.aws4.camera;" parent="1" vertex="1">
          <mxGeometry x="64.5" y="451.5" width="78" height="78" as="geometry" />
        </mxCell>
        <mxCell id="-QjtrjUzRDEMRZ5MF8oH-4" value="" style="outlineConnect=0;fontColor=#232F3E;gradientColor=none;fillColor=#277116;strokeColor=none;dashed=0;verticalLabelPosition=bottom;verticalAlign=top;align=center;html=1;fontSize=12;fontStyle=0;aspect=fixed;pointerEvents=1;shape=mxgraph.aws4.utility;" parent="1" vertex="1">
          <mxGeometry x="165.5" y="306.5" width="78" height="78" as="geometry" />
        </mxCell>
        <mxCell id="-QjtrjUzRDEMRZ5MF8oH-5" value="" style="outlineConnect=0;fontColor=#232F3E;gradientColor=none;fillColor=#277116;strokeColor=none;dashed=0;verticalLabelPosition=bottom;verticalAlign=top;align=center;html=1;fontSize=12;fontStyle=0;aspect=fixed;pointerEvents=1;shape=mxgraph.aws4.coffee_pot;" parent="1" vertex="1">
          <mxGeometry x="166.5" y="410.5" width="78" height="78" as="geometry" />
        </mxCell>
        <mxCell id="-QjtrjUzRDEMRZ5MF8oH-6" value="" style="outlineConnect=0;fontColor=#232F3E;gradientColor=none;fillColor=#277116;strokeColor=none;dashed=0;verticalLabelPosition=bottom;verticalAlign=top;align=center;html=1;fontSize=12;fontStyle=0;aspect=fixed;pointerEvents=1;shape=mxgraph.aws4.lightbulb;" parent="1" vertex="1">
          <mxGeometry x="263.5" y="260.5" width="78" height="78" as="geometry" />
        </mxCell>
        <mxCell id="-QjtrjUzRDEMRZ5MF8oH-7" value="" style="outlineConnect=0;fontColor=#232F3E;gradientColor=none;fillColor=#277116;strokeColor=none;dashed=0;verticalLabelPosition=bottom;verticalAlign=top;align=center;html=1;fontSize=12;fontStyle=0;aspect=fixed;pointerEvents=1;shape=mxgraph.aws4.house;" parent="1" vertex="1">
          <mxGeometry x="261.5" y="356" width="78" height="78" as="geometry" />
        </mxCell>
        <mxCell id="-QjtrjUzRDEMRZ5MF8oH-8" value="" style="outlineConnect=0;fontColor=#232F3E;gradientColor=none;fillColor=#277116;strokeColor=none;dashed=0;verticalLabelPosition=bottom;verticalAlign=top;align=center;html=1;fontSize=12;fontStyle=0;aspect=fixed;pointerEvents=1;shape=mxgraph.aws4.thermostat;" parent="1" vertex="1">
          <mxGeometry x="261.5" y="451.5" width="78" height="78" as="geometry" />
        </mxCell>
        <mxCell id="-QjtrjUzRDEMRZ5MF8oH-9" value="1" style="rounded=1;whiteSpace=wrap;html=1;fillColor=#007CBD;strokeColor=none;fontColor=#FFFFFF;fontStyle=1;fontSize=22;" parent="1" vertex="1">
          <mxGeometry x="223.5" y="211.5" width="40" height="38" as="geometry" />
        </mxCell>
        <mxCell id="-QjtrjUzRDEMRZ5MF8oH-10" value="ML Model Executable" style="outlineConnect=0;fontColor=#232F3E;gradientColor=none;fillColor=#116D5B;strokeColor=none;dashed=0;verticalLabelPosition=bottom;verticalAlign=top;align=center;html=1;fontSize=12;fontStyle=0;aspect=fixed;pointerEvents=1;shape=mxgraph.aws4.sagemaker_model;" parent="1" vertex="1">
          <mxGeometry x="473.5" y="244.5" width="78" height="78" as="geometry" />
        </mxCell>
        <mxCell id="-QjtrjUzRDEMRZ5MF8oH-11" value="AWS Lambda Function" style="outlineConnect=0;fontColor=#232F3E;gradientColor=none;fillColor=#277116;strokeColor=none;dashed=0;verticalLabelPosition=bottom;verticalAlign=top;align=center;html=1;fontSize=12;fontStyle=0;aspect=fixed;pointerEvents=1;shape=mxgraph.aws4.lambda_function;" parent="1" vertex="1">
          <mxGeometry x="473.5" y="349.5" width="78" height="78" as="geometry" />
        </mxCell>
        <mxCell id="-QjtrjUzRDEMRZ5MF8oH-12" value="AWS IoT Greengrass Core" style="outlineConnect=0;fontColor=#232F3E;gradientColor=#60A337;gradientDirection=north;fillColor=#277116;strokeColor=#ffffff;dashed=0;verticalLabelPosition=bottom;verticalAlign=top;align=center;html=1;fontSize=12;fontStyle=0;aspect=fixed;shape=mxgraph.aws4.resourceIcon;resIcon=mxgraph.aws4.greengrass;" parent="1" vertex="1">
          <mxGeometry x="473.5" y="457.5" width="78" height="78" as="geometry" />
        </mxCell>
        <mxCell id="-QjtrjUzRDEMRZ5MF8oH-16" value="AWS IoT Core" style="outlineConnect=0;fontColor=#232F3E;gradientColor=#60A337;gradientDirection=north;fillColor=#277116;strokeColor=#ffffff;dashed=0;verticalLabelPosition=bottom;verticalAlign=top;align=center;html=1;fontSize=12;fontStyle=0;aspect=fixed;shape=mxgraph.aws4.resourceIcon;resIcon=mxgraph.aws4.internet_of_things;" parent="1" vertex="1">
          <mxGeometry x="745.5" y="451.5" width="78" height="78" as="geometry" />
        </mxCell>
        <mxCell id="-QjtrjUzRDEMRZ5MF8oH-17" value="AWS IoT Analytics" style="outlineConnect=0;fontColor=#232F3E;gradientColor=#60A337;gradientDirection=north;fillColor=#277116;strokeColor=#ffffff;dashed=0;verticalLabelPosition=bottom;verticalAlign=top;align=center;html=1;fontSize=12;fontStyle=0;aspect=fixed;shape=mxgraph.aws4.resourceIcon;resIcon=mxgraph.aws4.iot_analytics;" parent="1" vertex="1">
          <mxGeometry x="949.5" y="451.5" width="78" height="78" as="geometry" />
        </mxCell>
        <mxCell id="-QjtrjUzRDEMRZ5MF8oH-18" value="ML Model Executable" style="outlineConnect=0;fontColor=#232F3E;gradientColor=none;fillColor=#116D5B;strokeColor=none;dashed=0;verticalLabelPosition=bottom;verticalAlign=top;align=center;html=1;fontSize=12;fontStyle=0;aspect=fixed;pointerEvents=1;shape=mxgraph.aws4.sagemaker_model;" parent="1" vertex="1">
          <mxGeometry x="136.5" y="691.5" width="78" height="78" as="geometry" />
        </mxCell>
        <mxCell id="-QjtrjUzRDEMRZ5MF8oH-19" value="AWS IoT Greengrass Core" style="outlineConnect=0;fontColor=#232F3E;gradientColor=#60A337;gradientDirection=north;fillColor=#277116;strokeColor=#ffffff;dashed=0;verticalLabelPosition=bottom;verticalAlign=top;align=center;html=1;fontSize=12;fontStyle=0;aspect=fixed;shape=mxgraph.aws4.resourceIcon;resIcon=mxgraph.aws4.iot_core;" parent="1" vertex="1">
          <mxGeometry x="137.5" y="796" width="78" height="78" as="geometry" />
        </mxCell>
        <mxCell id="-QjtrjUzRDEMRZ5MF8oH-20" value="Video Camera" style="outlineConnect=0;fontColor=#232F3E;gradientColor=none;fillColor=#277116;strokeColor=none;dashed=0;verticalLabelPosition=bottom;verticalAlign=top;align=center;html=1;fontSize=12;fontStyle=0;aspect=fixed;pointerEvents=1;shape=mxgraph.aws4.camera;" parent="1" vertex="1">
          <mxGeometry x="137.5" y="903.5" width="78" height="78" as="geometry" />
        </mxCell>
        <mxCell id="-QjtrjUzRDEMRZ5MF8oH-21" value="AWS IoT Core" style="outlineConnect=0;fontColor=#232F3E;gradientColor=#60A337;gradientDirection=north;fillColor=#277116;strokeColor=#ffffff;dashed=0;verticalLabelPosition=bottom;verticalAlign=top;align=center;html=1;fontSize=12;fontStyle=0;aspect=fixed;shape=mxgraph.aws4.resourceIcon;resIcon=mxgraph.aws4.internet_of_things;" parent="1" vertex="1">
          <mxGeometry x="352.5" y="711.5" width="78" height="78" as="geometry" />
        </mxCell>
        <mxCell id="-QjtrjUzRDEMRZ5MF8oH-22" value="AWS IoT Analytics" style="outlineConnect=0;fontColor=#232F3E;gradientColor=#60A337;gradientDirection=north;fillColor=#277116;strokeColor=#ffffff;dashed=0;verticalLabelPosition=bottom;verticalAlign=top;align=center;html=1;fontSize=12;fontStyle=0;aspect=fixed;shape=mxgraph.aws4.resourceIcon;resIcon=mxgraph.aws4.iot_analytics;" parent="1" vertex="1">
          <mxGeometry x="532.5" y="708.5" width="78" height="78" as="geometry" />
        </mxCell>
        <mxCell id="-QjtrjUzRDEMRZ5MF8oH-23" value="AWS IoT Events" style="outlineConnect=0;fontColor=#232F3E;gradientColor=#60A337;gradientDirection=north;fillColor=#277116;strokeColor=#ffffff;dashed=0;verticalLabelPosition=bottom;verticalAlign=top;align=center;html=1;fontSize=12;fontStyle=0;aspect=fixed;shape=mxgraph.aws4.resourceIcon;resIcon=mxgraph.aws4.iot_events;" parent="1" vertex="1">
          <mxGeometry x="721.5" y="708.5" width="78" height="78" as="geometry" />
        </mxCell>
        <mxCell id="-QjtrjUzRDEMRZ5MF8oH-24" value="Amazon SNS" style="outlineConnect=0;fontColor=#232F3E;gradientColor=#F34482;gradientDirection=north;fillColor=#BC1356;strokeColor=#ffffff;dashed=0;verticalLabelPosition=bottom;verticalAlign=top;align=center;html=1;fontSize=12;fontStyle=0;aspect=fixed;shape=mxgraph.aws4.resourceIcon;resIcon=mxgraph.aws4.sns;" parent="1" vertex="1">
          <mxGeometry x="902.5" y="708.5" width="78" height="78" as="geometry" />
        </mxCell>
        <mxCell id="-QjtrjUzRDEMRZ5MF8oH-25" value="Amazon Kinesis&lt;br&gt;Video Streams&lt;br&gt;" style="outlineConnect=0;fontColor=#232F3E;gradientColor=#945DF2;gradientDirection=north;fillColor=#5A30B5;strokeColor=#ffffff;dashed=0;verticalLabelPosition=bottom;verticalAlign=top;align=center;html=1;fontSize=12;fontStyle=0;aspect=fixed;shape=mxgraph.aws4.resourceIcon;resIcon=mxgraph.aws4.kinesis_video_streams;" parent="1" vertex="1">
          <mxGeometry x="484.5" y="874.5" width="78" height="78" as="geometry" />
        </mxCell>
        <mxCell id="-QjtrjUzRDEMRZ5MF8oH-26" value="Mobile Application" style="outlineConnect=0;fontColor=#232F3E;gradientColor=#F54749;gradientDirection=north;fillColor=#C7131F;strokeColor=#ffffff;dashed=0;verticalLabelPosition=bottom;verticalAlign=top;align=center;html=1;fontSize=12;fontStyle=0;aspect=fixed;shape=mxgraph.aws4.resourceIcon;resIcon=mxgraph.aws4.mobile;" parent="1" vertex="1">
          <mxGeometry x="785.5" y="873.5" width="78" height="78" as="geometry" />
        </mxCell>
        <mxCell id="-QjtrjUzRDEMRZ5MF8oH-27" value="2" style="rounded=1;whiteSpace=wrap;html=1;fillColor=#007CBD;strokeColor=none;fontColor=#FFFFFF;fontStyle=1;fontSize=22;" parent="1" vertex="1">
          <mxGeometry x="483.5" y="164.5" width="40" height="38" as="geometry" />
        </mxCell>
        <mxCell id="-QjtrjUzRDEMRZ5MF8oH-28" value="3" style="rounded=1;whiteSpace=wrap;html=1;fillColor=#007CBD;strokeColor=none;fontColor=#FFFFFF;fontStyle=1;fontSize=22;" parent="1" vertex="1">
          <mxGeometry x="823.5" y="175.5" width="40" height="38" as="geometry" />
        </mxCell>
        <mxCell id="-QjtrjUzRDEMRZ5MF8oH-29" value="4" style="rounded=1;whiteSpace=wrap;html=1;fillColor=#007CBD;strokeColor=none;fontColor=#FFFFFF;fontStyle=1;fontSize=22;" parent="1" vertex="1">
          <mxGeometry x="633.5" y="399.5" width="40" height="38" as="geometry" />
        </mxCell>
        <mxCell id="-QjtrjUzRDEMRZ5MF8oH-30" value="5" style="rounded=1;whiteSpace=wrap;html=1;fillColor=#007CBD;strokeColor=none;fontColor=#FFFFFF;fontStyle=1;fontSize=22;" parent="1" vertex="1">
          <mxGeometry x="878.5" y="399.5" width="40" height="38" as="geometry" />
        </mxCell>
        <mxCell id="-QjtrjUzRDEMRZ5MF8oH-31" value="6" style="rounded=1;whiteSpace=wrap;html=1;fillColor=#007CBD;strokeColor=none;fontColor=#FFFFFF;fontStyle=1;fontSize=22;" parent="1" vertex="1">
          <mxGeometry x="136.5" y="608.5" width="40" height="38" as="geometry" />
        </mxCell>
        <mxCell id="-QjtrjUzRDEMRZ5MF8oH-32" value="7" style="rounded=1;whiteSpace=wrap;html=1;fillColor=#007CBD;strokeColor=none;fontColor=#FFFFFF;fontStyle=1;fontSize=22;" parent="1" vertex="1">
          <mxGeometry x="462.5" y="666.5" width="40" height="38" as="geometry" />
        </mxCell>
        <mxCell id="-QjtrjUzRDEMRZ5MF8oH-33" value="8" style="rounded=1;whiteSpace=wrap;html=1;fillColor=#007CBD;strokeColor=none;fontColor=#FFFFFF;fontStyle=1;fontSize=22;" parent="1" vertex="1">
          <mxGeometry x="832.5" y="666.5" width="40" height="38" as="geometry" />
        </mxCell>
        <mxCell id="-QjtrjUzRDEMRZ5MF8oH-34" value="9" style="rounded=1;whiteSpace=wrap;html=1;fillColor=#007CBD;strokeColor=none;fontColor=#FFFFFF;fontStyle=1;fontSize=22;" parent="1" vertex="1">
          <mxGeometry x="352.5" y="854.5" width="40" height="38" as="geometry" />
        </mxCell>
        <mxCell id="-QjtrjUzRDEMRZ5MF8oH-35" value="10" style="rounded=1;whiteSpace=wrap;html=1;fillColor=#007CBD;strokeColor=none;fontColor=#FFFFFF;fontStyle=1;fontSize=22;" parent="1" vertex="1">
          <mxGeometry x="652.5" y="854.5" width="40" height="38" as="geometry" />
        </mxCell>
        <mxCell id="-QjtrjUzRDEMRZ5MF8oH-47" value="Title text" style="text;html=1;resizable=0;points=[];autosize=1;align=left;verticalAlign=top;spacingTop=-4;fontSize=30;fontStyle=1" parent="1" vertex="1">
          <mxGeometry x="56.5" y="64.5" width="130" height="40" as="geometry" />
        </mxCell>
        <mxCell id="-QjtrjUzRDEMRZ5MF8oH-48" value="Subtitle text&lt;br style=&quot;font-size: 16px&quot;&gt;" style="text;html=1;resizable=0;points=[];autosize=1;align=left;verticalAlign=top;spacingTop=-4;fontSize=16;" parent="1" vertex="1">
          <mxGeometry x="56.5" y="114.5" width="100" height="20" as="geometry" />
        </mxCell>
        <mxCell id="-QjtrjUzRDEMRZ5MF8oH-49" value="Label" style="text;html=1;resizable=0;points=[];autosize=1;align=left;verticalAlign=top;spacingTop=-4;fontSize=16;fontStyle=1" parent="1" vertex="1">
          <mxGeometry x="84.5" y="164.5" width="50" height="20" as="geometry" />
        </mxCell>
        <mxCell id="SCVMTBWpLvtzJIhz15lM-1" value="" style="line;strokeWidth=2;html=1;fontSize=14;" parent="1" vertex="1">
          <mxGeometry x="52.5" y="139.5" width="1060" height="10" as="geometry" />
        </mxCell>
        <mxCell id="SCVMTBWpLvtzJIhz15lM-2" value="&lt;span&gt;Label&lt;/span&gt;" style="text;html=1;resizable=0;points=[];autosize=1;align=left;verticalAlign=top;spacingTop=-4;fontSize=14;fontStyle=1" parent="1" vertex="1">
          <mxGeometry x="442.5" y="216.5" width="50" height="20" as="geometry" />
        </mxCell>
        <mxCell id="SCVMTBWpLvtzJIhz15lM-3" value="" style="edgeStyle=orthogonalEdgeStyle;html=1;endArrow=open;elbow=vertical;startArrow=none;endFill=0;strokeColor=#545B64;rounded=0;fontSize=14;" parent="1" edge="1">
          <mxGeometry width="100" relative="1" as="geometry">
            <mxPoint x="354.5" y="394.5" as="sourcePoint" />
            <mxPoint x="404.5" y="394.5" as="targetPoint" />
          </mxGeometry>
        </mxCell>
        <mxCell id="SCVMTBWpLvtzJIhz15lM-5" value="" style="shape=curlyBracket;whiteSpace=wrap;html=1;rounded=1;fontSize=14;" parent="1" vertex="1">
          <mxGeometry x="415.5" y="248.5" width="20" height="290" as="geometry" />
        </mxCell>
        <mxCell id="SCVMTBWpLvtzJIhz15lM-17" value="&lt;span&gt;Label&lt;/span&gt;" style="edgeStyle=orthogonalEdgeStyle;html=1;endArrow=open;elbow=vertical;startArrow=none;endFill=0;strokeColor=#545B64;rounded=0;fontSize=14;strokeWidth=2;" parent="1" edge="1">
          <mxGeometry x="-0.037" y="20" width="100" relative="1" as="geometry">
            <mxPoint x="584.5" y="254.5" as="sourcePoint" />
            <mxPoint x="854.5" y="254.5" as="targetPoint" />
            <mxPoint as="offset" />
          </mxGeometry>
        </mxCell>
        <mxCell id="SCVMTBWpLvtzJIhz15lM-18" value="&lt;span&gt;Label&lt;/span&gt;" style="edgeStyle=orthogonalEdgeStyle;html=1;endArrow=none;elbow=vertical;startArrow=open;endFill=0;strokeColor=#545B64;rounded=0;fontSize=14;strokeWidth=2;startFill=0;" parent="1" edge="1">
          <mxGeometry x="-0.037" y="20" width="100" relative="1" as="geometry">
            <mxPoint x="582.5" y="318" as="sourcePoint" />
            <mxPoint x="852.5" y="318" as="targetPoint" />
            <mxPoint as="offset" />
          </mxGeometry>
        </mxCell>
        <mxCell id="SCVMTBWpLvtzJIhz15lM-19" value="&lt;span&gt;Label&lt;/span&gt;" style="edgeStyle=orthogonalEdgeStyle;html=1;endArrow=open;elbow=vertical;startArrow=none;endFill=0;strokeColor=#545B64;rounded=0;fontSize=14;strokeWidth=2;" parent="1" edge="1">
          <mxGeometry x="-0.037" y="20" width="100" relative="1" as="geometry">
            <mxPoint x="594.5000000000002" y="484.5" as="sourcePoint" />
            <mxPoint x="714.5" y="484.5" as="targetPoint" />
            <mxPoint as="offset" />
          </mxGeometry>
        </mxCell>
        <mxCell id="SCVMTBWpLvtzJIhz15lM-20" value="&lt;span&gt;Label&lt;/span&gt;" style="edgeStyle=orthogonalEdgeStyle;html=1;endArrow=open;elbow=vertical;startArrow=none;endFill=0;strokeColor=#545B64;rounded=0;fontSize=14;strokeWidth=2;" parent="1" edge="1">
          <mxGeometry x="-0.037" y="20" width="100" relative="1" as="geometry">
            <mxPoint x="838.5000000000002" y="487.5" as="sourcePoint" />
            <mxPoint x="924.5" y="487.5" as="targetPoint" />
            <mxPoint as="offset" />
          </mxGeometry>
        </mxCell>
        <mxCell id="SCVMTBWpLvtzJIhz15lM-21" value="Label" style="text;html=1;resizable=0;points=[];autosize=1;align=left;verticalAlign=top;spacingTop=-4;fontSize=16;fontStyle=1" parent="1" vertex="1">
          <mxGeometry x="66.5" y="576.5" width="50" height="20" as="geometry" />
        </mxCell>
        <mxCell id="SCVMTBWpLvtzJIhz15lM-22" value="&lt;span&gt;Label&lt;/span&gt;" style="text;html=1;resizable=0;points=[];autosize=1;align=left;verticalAlign=top;spacingTop=-4;fontSize=14;fontStyle=1" parent="1" vertex="1">
          <mxGeometry x="136.5" y="656.5" width="50" height="20" as="geometry" />
        </mxCell>
        <mxCell id="SCVMTBWpLvtzJIhz15lM-23" value="" style="shape=curlyBracket;whiteSpace=wrap;html=1;rounded=1;fontSize=14;" parent="1" vertex="1">
          <mxGeometry x="76.5" y="691.5" width="20" height="290" as="geometry" />
        </mxCell>
        <mxCell id="SCVMTBWpLvtzJIhz15lM-24" value="Video Events" style="edgeStyle=orthogonalEdgeStyle;html=1;endArrow=open;elbow=vertical;startArrow=none;endFill=0;strokeColor=#545B64;rounded=0;fontSize=14;strokeWidth=2;" parent="1" edge="1">
          <mxGeometry x="-0.037" y="20" width="100" relative="1" as="geometry">
            <mxPoint x="261.5" y="753.5" as="sourcePoint" />
            <mxPoint x="342.5" y="753.5" as="targetPoint" />
            <mxPoint as="offset" />
          </mxGeometry>
        </mxCell>
        <mxCell id="SCVMTBWpLvtzJIhz15lM-25" value="" style="edgeStyle=orthogonalEdgeStyle;html=1;endArrow=open;elbow=vertical;startArrow=none;endFill=0;strokeColor=#545B64;rounded=0;fontSize=14;strokeWidth=2;" parent="1" edge="1">
          <mxGeometry x="-0.037" y="20" width="100" relative="1" as="geometry">
            <mxPoint x="443" y="750" as="sourcePoint" />
            <mxPoint x="524" y="750" as="targetPoint" />
            <mxPoint as="offset" />
          </mxGeometry>
        </mxCell>
        <mxCell id="SCVMTBWpLvtzJIhz15lM-26" value="" style="edgeStyle=orthogonalEdgeStyle;html=1;endArrow=open;elbow=vertical;startArrow=none;endFill=0;strokeColor=#545B64;rounded=0;fontSize=14;strokeWidth=2;" parent="1" edge="1">
          <mxGeometry x="-0.037" y="20" width="100" relative="1" as="geometry">
            <mxPoint x="622.5" y="750" as="sourcePoint" />
            <mxPoint x="703.5" y="750" as="targetPoint" />
            <mxPoint as="offset" />
          </mxGeometry>
        </mxCell>
        <mxCell id="SCVMTBWpLvtzJIhz15lM-27" value="" style="edgeStyle=orthogonalEdgeStyle;html=1;endArrow=open;elbow=vertical;startArrow=none;endFill=0;strokeColor=#545B64;rounded=0;fontSize=14;strokeWidth=2;" parent="1" edge="1">
          <mxGeometry x="-0.037" y="20" width="100" relative="1" as="geometry">
            <mxPoint x="811.5" y="747.5" as="sourcePoint" />
            <mxPoint x="892.5" y="747.5" as="targetPoint" />
            <mxPoint as="offset" />
          </mxGeometry>
        </mxCell>
        <mxCell id="SCVMTBWpLvtzJIhz15lM-28" value="Video Stream" style="edgeStyle=orthogonalEdgeStyle;html=1;endArrow=open;elbow=vertical;startArrow=none;endFill=0;strokeColor=#545B64;rounded=0;fontSize=14;strokeWidth=2;" parent="1" edge="1">
          <mxGeometry x="0.0038" y="-11" width="100" relative="1" as="geometry">
            <mxPoint x="262" y="913" as="sourcePoint" />
            <mxPoint x="472.5" y="913.5" as="targetPoint" />
            <mxPoint as="offset" />
            <Array as="points">
              <mxPoint x="367.5" y="913.5" />
            </Array>
          </mxGeometry>
        </mxCell>
        <mxCell id="SCVMTBWpLvtzJIhz15lM-29" value="" style="edgeStyle=orthogonalEdgeStyle;html=1;endArrow=open;elbow=vertical;startArrow=none;endFill=0;strokeColor=#545B64;rounded=0;fontSize=14;strokeWidth=2;" parent="1" edge="1">
          <mxGeometry x="0.0038" y="-11" width="100" relative="1" as="geometry">
            <mxPoint x="575.0714285714287" y="913.2142857142858" as="sourcePoint" />
            <mxPoint x="762.5" y="913.5" as="targetPoint" />
            <mxPoint as="offset" />
            <Array as="points">
              <mxPoint x="680.5" y="913.5" />
            </Array>
          </mxGeometry>
        </mxCell>
        <mxCell id="SCVMTBWpLvtzJIhz15lM-30" value="Build" style="outlineConnect=0;gradientColor=none;fontColor=#545B64;strokeColor=none;fillColor=#879196;dashed=0;verticalLabelPosition=bottom;verticalAlign=top;align=center;html=1;fontSize=12;fontStyle=0;aspect=fixed;shape=mxgraph.aws4.illustration_devices;pointerEvents=1" parent="1" vertex="1">
          <mxGeometry x="962.5" y="179.5" width="52" height="38" as="geometry" />
        </mxCell>
        <mxCell id="SCVMTBWpLvtzJIhz15lM-31" value="Train" style="outlineConnect=0;gradientColor=none;fontColor=#545B64;strokeColor=none;fillColor=#879196;dashed=0;verticalLabelPosition=bottom;verticalAlign=top;align=center;html=1;fontSize=12;fontStyle=0;aspect=fixed;shape=mxgraph.aws4.illustration_devices;pointerEvents=1" parent="1" vertex="1">
          <mxGeometry x="892.5" y="267.5" width="52" height="38" as="geometry" />
        </mxCell>
        <mxCell id="SCVMTBWpLvtzJIhz15lM-32" value="Optimize" style="outlineConnect=0;gradientColor=none;fontColor=#545B64;strokeColor=none;fillColor=#879196;dashed=0;verticalLabelPosition=bottom;verticalAlign=top;align=center;html=1;fontSize=12;fontStyle=0;aspect=fixed;shape=mxgraph.aws4.illustration_devices;pointerEvents=1" parent="1" vertex="1">
          <mxGeometry x="1032.5" y="267.5" width="52" height="38" as="geometry" />
        </mxCell>
        <mxCell id="SCVMTBWpLvtzJIhz15lM-33" value="" style="edgeStyle=orthogonalEdgeStyle;html=1;endArrow=open;elbow=vertical;startArrow=none;endFill=0;strokeColor=#545B64;rounded=0;fontSize=14;" parent="1" edge="1">
          <mxGeometry width="100" relative="1" as="geometry">
            <mxPoint x="958.5" y="293.5" as="sourcePoint" />
            <mxPoint x="1018.5" y="293.5" as="targetPoint" />
          </mxGeometry>
        </mxCell>
        <mxCell id="SCVMTBWpLvtzJIhz15lM-35" value="" style="edgeStyle=orthogonalEdgeStyle;html=1;endArrow=open;elbow=vertical;startArrow=none;endFill=0;strokeColor=#545B64;rounded=0;fontSize=14;" parent="1" edge="1">
          <mxGeometry width="100" relative="1" as="geometry">
            <mxPoint x="992.5" y="236.46774193548387" as="sourcePoint" />
            <mxPoint x="992.5" y="256.4677419354839" as="targetPoint" />
          </mxGeometry>
        </mxCell>
        <mxCell id="7OVz4w7n9kzEPWy-4BBC-3" value="" style="rounded=0;whiteSpace=wrap;html=1;fillColor=#EAEDED;fontSize=22;fontColor=#FFFFFF;strokeColor=none;labelBackgroundColor=none;" parent="1" vertex="1">
          <mxGeometry x="1151" y="51" width="539" height="1220" as="geometry" />
        </mxCell>
        <mxCell id="7OVz4w7n9kzEPWy-4BBC-4" value="1" style="rounded=1;whiteSpace=wrap;html=1;fillColor=#007CBD;strokeColor=none;fontColor=#FFFFFF;fontStyle=1;fontSize=22;labelBackgroundColor=none;" parent="1" vertex="1">
          <mxGeometry x="1169" y="63" width="40" height="38" as="geometry" />
        </mxCell>
        <mxCell id="7OVz4w7n9kzEPWy-4BBC-5" value="2" style="rounded=1;whiteSpace=wrap;html=1;fillColor=#007CBD;strokeColor=none;fontColor=#FFFFFF;fontStyle=1;fontSize=22;labelBackgroundColor=none;" parent="1" vertex="1">
          <mxGeometry x="1167.5" y="185" width="40" height="38" as="geometry" />
        </mxCell>
        <mxCell id="7OVz4w7n9kzEPWy-4BBC-6" value="3" style="rounded=1;whiteSpace=wrap;html=1;fillColor=#007CBD;strokeColor=none;fontColor=#FFFFFF;fontStyle=1;fontSize=22;labelBackgroundColor=none;" parent="1" vertex="1">
          <mxGeometry x="1167.5" y="305" width="40" height="38" as="geometry" />
        </mxCell>
        <mxCell id="7OVz4w7n9kzEPWy-4BBC-7" value="4" style="rounded=1;whiteSpace=wrap;html=1;fillColor=#007CBD;strokeColor=none;fontColor=#FFFFFF;fontStyle=1;fontSize=22;labelBackgroundColor=none;" parent="1" vertex="1">
          <mxGeometry x="1167.5" y="419" width="40" height="38" as="geometry" />
        </mxCell>
        <mxCell id="7OVz4w7n9kzEPWy-4BBC-8" value="5" style="rounded=1;whiteSpace=wrap;html=1;fillColor=#007CBD;strokeColor=none;fontColor=#FFFFFF;fontStyle=1;fontSize=22;labelBackgroundColor=none;" parent="1" vertex="1">
          <mxGeometry x="1169" y="536" width="40" height="38" as="geometry" />
        </mxCell>
        <mxCell id="7OVz4w7n9kzEPWy-4BBC-9" value="6" style="rounded=1;whiteSpace=wrap;html=1;fillColor=#007CBD;strokeColor=none;fontColor=#FFFFFF;fontStyle=1;fontSize=22;labelBackgroundColor=none;" parent="1" vertex="1">
          <mxGeometry x="1170" y="651" width="40" height="38" as="geometry" />
        </mxCell>
        <mxCell id="7OVz4w7n9kzEPWy-4BBC-10" value="7" style="rounded=1;whiteSpace=wrap;html=1;fillColor=#007CBD;strokeColor=none;fontColor=#FFFFFF;fontStyle=1;fontSize=22;labelBackgroundColor=none;" parent="1" vertex="1">
          <mxGeometry x="1169.5" y="767" width="40" height="38" as="geometry" />
        </mxCell>
        <mxCell id="7OVz4w7n9kzEPWy-4BBC-11" value="8" style="rounded=1;whiteSpace=wrap;html=1;fillColor=#007CBD;strokeColor=none;fontColor=#FFFFFF;fontStyle=1;fontSize=22;labelBackgroundColor=none;" parent="1" vertex="1">
          <mxGeometry x="1170" y="885" width="40" height="38" as="geometry" />
        </mxCell>
        <mxCell id="7OVz4w7n9kzEPWy-4BBC-12" value="9" style="rounded=1;whiteSpace=wrap;html=1;fillColor=#007CBD;strokeColor=none;fontColor=#FFFFFF;fontStyle=1;fontSize=22;labelBackgroundColor=none;" parent="1" vertex="1">
          <mxGeometry x="1168" y="1005" width="40" height="38" as="geometry" />
        </mxCell>
        <mxCell id="7OVz4w7n9kzEPWy-4BBC-13" value="&lt;span&gt;Lorem ipsum dolor sit amet, consectetur adipiscing elit, sed do eiusmod tempor incididunt ut labore et dolore magna aliqua. Ut enim ad minim veniam, quis nostrud exercitation ullamco laboris nisi ut aliquip ex ea commodo consequat. Duis aute irure dolor in reprehenderit in voluptate velit esse cillum dolore eu fugiat nulla pariatur. Excepteur sint occaecat cupidatat non proident, sunt in culpa qui officia deserunt mollit anim id est laborum.&lt;/span&gt;&lt;br&gt;" style="text;html=1;align=left;verticalAlign=top;spacingTop=-4;fontSize=14;labelBackgroundColor=none;whiteSpace=wrap;" parent="1" vertex="1">
          <mxGeometry x="1220.5" y="62.5" width="449" height="118" as="geometry" />
        </mxCell>
        <mxCell id="7OVz4w7n9kzEPWy-4BBC-14" value="&lt;span&gt;Lorem ipsum dolor sit amet, consectetur adipiscing elit, sed do eiusmod tempor incididunt ut labore et dolore magna aliqua. Ut enim ad minim veniam, quis nostrud exercitation ullamco laboris nisi ut aliquip ex ea commodo consequat. Duis aute irure dolor in reprehenderit in voluptate velit esse cillum dolore eu fugiat nulla pariatur. Excepteur sint occaecat cupidatat non proident, sunt in culpa qui officia deserunt mollit anim id est laborum.&lt;/span&gt;&lt;br&gt;" style="text;html=1;align=left;verticalAlign=top;spacingTop=-4;fontSize=14;labelBackgroundColor=none;whiteSpace=wrap;" parent="1" vertex="1">
          <mxGeometry x="1219.5" y="185.5" width="450" height="115" as="geometry" />
        </mxCell>
        <mxCell id="7OVz4w7n9kzEPWy-4BBC-15" value="&lt;span&gt;Lorem ipsum dolor sit amet, consectetur adipiscing elit, sed do eiusmod tempor incididunt ut labore et dolore magna aliqua. Ut enim ad minim veniam, quis nostrud exercitation ullamco laboris nisi ut aliquip ex ea commodo consequat. Duis aute irure dolor in reprehenderit in voluptate velit esse cillum dolore eu fugiat nulla pariatur. Excepteur sint occaecat cupidatat non proident, sunt in culpa qui officia deserunt mollit anim id est laborum.&lt;/span&gt;&lt;br&gt;" style="text;html=1;align=left;verticalAlign=top;spacingTop=-4;fontSize=14;labelBackgroundColor=none;whiteSpace=wrap;" parent="1" vertex="1">
          <mxGeometry x="1219.5" y="303.5" width="450" height="117" as="geometry" />
        </mxCell>
        <mxCell id="7OVz4w7n9kzEPWy-4BBC-16" value="&lt;span&gt;Lorem ipsum dolor sit amet, consectetur adipiscing elit, sed do eiusmod tempor incididunt ut labore et dolore magna aliqua. Ut enim ad minim veniam, quis nostrud exercitation ullamco laboris nisi ut aliquip ex ea commodo consequat. Duis aute irure dolor in reprehenderit in voluptate velit esse cillum dolore eu fugiat nulla pariatur. Excepteur sint occaecat cupidatat non proident, sunt in culpa qui officia deserunt mollit anim id est laborum.&lt;/span&gt;&lt;br&gt;" style="text;html=1;align=left;verticalAlign=top;spacingTop=-4;fontSize=14;labelBackgroundColor=none;whiteSpace=wrap;" parent="1" vertex="1">
          <mxGeometry x="1219.5" y="419.5" width="450" height="121" as="geometry" />
        </mxCell>
        <mxCell id="7OVz4w7n9kzEPWy-4BBC-17" value="&lt;span&gt;Lorem ipsum dolor sit amet, consectetur adipiscing elit, sed do eiusmod tempor incididunt ut labore et dolore magna aliqua. Ut enim ad minim veniam, quis nostrud exercitation ullamco laboris nisi ut aliquip ex ea commodo consequat. Duis aute irure dolor in reprehenderit in voluptate velit esse cillum dolore eu fugiat nulla pariatur. Excepteur sint occaecat cupidatat non proident, sunt in culpa qui officia deserunt mollit anim id est laborum.&lt;/span&gt;&lt;br&gt;" style="text;html=1;align=left;verticalAlign=top;spacingTop=-4;fontSize=14;labelBackgroundColor=none;whiteSpace=wrap;" parent="1" vertex="1">
          <mxGeometry x="1220.5" y="536.5" width="449" height="114" as="geometry" />
        </mxCell>
        <mxCell id="7OVz4w7n9kzEPWy-4BBC-18" value="&lt;span&gt;Lorem ipsum dolor sit amet, consectetur adipiscing elit, sed do eiusmod tempor incididunt ut labore et dolore magna aliqua. Ut enim ad minim veniam, quis nostrud exercitation ullamco laboris nisi ut aliquip ex ea commodo consequat. Duis aute irure dolor in reprehenderit in voluptate velit esse cillum dolore eu fugiat nulla pariatur. Excepteur sint occaecat cupidatat non proident, sunt in culpa qui officia deserunt mollit anim id est laborum.&lt;/span&gt;&lt;br&gt;" style="text;html=1;align=left;verticalAlign=top;spacingTop=-4;fontSize=14;labelBackgroundColor=none;whiteSpace=wrap;" parent="1" vertex="1">
          <mxGeometry x="1220.5" y="652.5" width="450" height="118" as="geometry" />
        </mxCell>
        <mxCell id="7OVz4w7n9kzEPWy-4BBC-19" value="&lt;span&gt;Lorem ipsum dolor sit amet, consectetur adipiscing elit, sed do eiusmod tempor incididunt ut labore et dolore magna aliqua. Ut enim ad minim veniam, quis nostrud exercitation ullamco laboris nisi ut aliquip ex ea commodo consequat. Duis aute irure dolor in reprehenderit in voluptate velit esse cillum dolore eu fugiat nulla pariatur. Excepteur sint occaecat cupidatat non proident, sunt in culpa qui officia deserunt mollit anim id est laborum.&lt;/span&gt;&lt;br&gt;" style="text;html=1;align=left;verticalAlign=top;spacingTop=-4;fontSize=14;labelBackgroundColor=none;whiteSpace=wrap;" parent="1" vertex="1">
          <mxGeometry x="1220.5" y="767.5" width="449" height="113" as="geometry" />
        </mxCell>
        <mxCell id="7OVz4w7n9kzEPWy-4BBC-20" value="&lt;span&gt;Lorem ipsum dolor sit amet, consectetur adipiscing elit, sed do eiusmod tempor incididunt ut labore et dolore magna aliqua. Ut enim ad minim veniam, quis nostrud exercitation ullamco laboris nisi ut aliquip ex ea commodo consequat. Duis aute irure dolor in reprehenderit in voluptate velit esse cillum dolore eu fugiat nulla pariatur. Excepteur sint occaecat cupidatat non proident, sunt in culpa qui officia deserunt mollit anim id est laborum.&lt;/span&gt;&lt;br&gt;" style="text;html=1;align=left;verticalAlign=top;spacingTop=-4;fontSize=14;labelBackgroundColor=none;whiteSpace=wrap;" parent="1" vertex="1">
          <mxGeometry x="1220.5" y="886.5" width="449" height="124" as="geometry" />
        </mxCell>
        <mxCell id="7OVz4w7n9kzEPWy-4BBC-21" value="&lt;span&gt;Lorem ipsum dolor sit amet, consectetur adipiscing elit, sed do eiusmod tempor incididunt ut labore et dolore magna aliqua. Ut enim ad minim veniam, quis nostrud exercitation ullamco laboris nisi ut aliquip ex ea commodo consequat. Duis aute irure dolor in reprehenderit in voluptate velit esse cillum dolore eu fugiat nulla pariatur. Excepteur sint occaecat cupidatat non proident, sunt in culpa qui officia deserunt mollit anim id est laborum.&lt;/span&gt;&lt;br&gt;" style="text;html=1;align=left;verticalAlign=top;spacingTop=-4;fontSize=14;labelBackgroundColor=none;whiteSpace=wrap;" parent="1" vertex="1">
          <mxGeometry x="1220.5" y="1005.5" width="449" height="115" as="geometry" />
        </mxCell>
        <mxCell id="7OVz4w7n9kzEPWy-4BBC-22" value="10" style="rounded=1;whiteSpace=wrap;html=1;fillColor=#007CBD;strokeColor=none;fontColor=#FFFFFF;fontStyle=1;fontSize=22;labelBackgroundColor=none;" parent="1" vertex="1">
          <mxGeometry x="1169" y="1130.5" width="40" height="38" as="geometry" />
        </mxCell>
        <mxCell id="7OVz4w7n9kzEPWy-4BBC-23" value="&lt;span&gt;Lorem ipsum dolor sit amet, consectetur adipiscing elit, sed do eiusmod tempor incididunt ut labore et dolore magna aliqua. Ut enim ad minim veniam, quis nostrud exercitation ullamco laboris nisi ut aliquip ex ea commodo consequat. Duis aute irure dolor in reprehenderit in voluptate velit esse cillum dolore eu fugiat nulla pariatur. Excepteur sint occaecat cupidatat non proident, sunt in culpa qui officia deserunt mollit anim id est laborum.&lt;/span&gt;&lt;br&gt;" style="text;html=1;align=left;verticalAlign=top;spacingTop=-4;fontSize=14;labelBackgroundColor=none;whiteSpace=wrap;" parent="1" vertex="1">
          <mxGeometry x="1221.5" y="1131" width="449" height="115" as="geometry" />
        </mxCell>
      </root>
    </mxGraphModel>
  </diagram>
  <diagram name="Copy of Copy of Copy of Page-2" id="hI4tf6n-wTudo4kgk_6C">
    <mxGraphModel dx="1422" dy="832" grid="1" gridSize="10" guides="1" tooltips="1" connect="1" arrows="1" fold="1" page="1" pageScale="1" pageWidth="1169" pageHeight="827" math="0" shadow="0">
      <root>
        <mxCell id="gZSN7CshybFUfBQ97hwv-0" />
        <mxCell id="gZSN7CshybFUfBQ97hwv-1" parent="gZSN7CshybFUfBQ97hwv-0" />
        <mxCell id="gZSN7CshybFUfBQ97hwv-2" value="Architecting on AWS Day 3" style="text;html=1;resizable=0;points=[];autosize=1;align=left;verticalAlign=top;spacingTop=-4;fontSize=30;fontStyle=1" vertex="1" parent="gZSN7CshybFUfBQ97hwv-1">
          <mxGeometry x="56.5" y="64.5" width="400" height="40" as="geometry" />
        </mxCell>
        <mxCell id="gZSN7CshybFUfBQ97hwv-3" value="Siemens 28th Septemeber" style="text;html=1;resizable=0;points=[];autosize=1;align=left;verticalAlign=top;spacingTop=-4;fontSize=16;" vertex="1" parent="gZSN7CshybFUfBQ97hwv-1">
          <mxGeometry x="56.5" y="114.5" width="200" height="20" as="geometry" />
        </mxCell>
        <mxCell id="gZSN7CshybFUfBQ97hwv-4" value="" style="line;strokeWidth=2;html=1;fontSize=14;" vertex="1" parent="gZSN7CshybFUfBQ97hwv-1">
          <mxGeometry x="52.5" y="139.5" width="1060" height="10" as="geometry" />
        </mxCell>
        <mxCell id="gZSN7CshybFUfBQ97hwv-5" value="CLOUDFRONT DISTRIBUTION&lt;br&gt;CF123345.cloudfront.net" style="outlineConnect=0;fontColor=#232F3E;gradientColor=#945DF2;gradientDirection=north;fillColor=#5A30B5;strokeColor=#ffffff;dashed=0;verticalLabelPosition=bottom;verticalAlign=top;align=center;html=1;fontSize=23;fontStyle=0;aspect=fixed;shape=mxgraph.aws4.resourceIcon;resIcon=mxgraph.aws4.cloudfront;" vertex="1" parent="gZSN7CshybFUfBQ97hwv-1">
          <mxGeometry x="350" y="1030" width="78" height="78" as="geometry" />
        </mxCell>
        <mxCell id="gZSN7CshybFUfBQ97hwv-6" value="" style="ellipse;shape=cloud;whiteSpace=wrap;html=1;fontSize=23;" vertex="1" parent="gZSN7CshybFUfBQ97hwv-1">
          <mxGeometry x="10" y="1030" width="120" height="80" as="geometry" />
        </mxCell>
        <mxCell id="gZSN7CshybFUfBQ97hwv-7" value="" style="shape=flexArrow;endArrow=classic;html=1;fontSize=23;" edge="1" parent="gZSN7CshybFUfBQ97hwv-1" source="gZSN7CshybFUfBQ97hwv-6">
          <mxGeometry width="50" height="50" relative="1" as="geometry">
            <mxPoint x="560" y="1250" as="sourcePoint" />
            <mxPoint x="290" y="1080" as="targetPoint" />
          </mxGeometry>
        </mxCell>
        <mxCell id="gZSN7CshybFUfBQ97hwv-8" value="https://mystaticcontent.s3.amazonaws.com&lt;br&gt;Origin&lt;br&gt;Access&amp;nbsp;&lt;br&gt;Identity (OAI)" style="outlineConnect=0;fontColor=#232F3E;gradientColor=none;fillColor=#277116;strokeColor=none;dashed=0;verticalLabelPosition=bottom;verticalAlign=top;align=center;html=1;fontSize=21;fontStyle=1;aspect=fixed;pointerEvents=1;shape=mxgraph.aws4.bucket;" vertex="1" parent="gZSN7CshybFUfBQ97hwv-1">
          <mxGeometry x="830" y="870" width="75" height="78" as="geometry" />
        </mxCell>
        <mxCell id="gZSN7CshybFUfBQ97hwv-9" value="" style="shape=flexArrow;endArrow=classic;html=1;fontSize=21;" edge="1" parent="gZSN7CshybFUfBQ97hwv-1" source="gZSN7CshybFUfBQ97hwv-5">
          <mxGeometry width="50" height="50" relative="1" as="geometry">
            <mxPoint x="560" y="1010" as="sourcePoint" />
            <mxPoint x="640" y="980" as="targetPoint" />
          </mxGeometry>
        </mxCell>
        <mxCell id="gZSN7CshybFUfBQ97hwv-10" value="ORIGIN #1&lt;br&gt;TTL = 5mins" style="text;html=1;strokeColor=none;fillColor=none;align=center;verticalAlign=middle;whiteSpace=wrap;rounded=0;fontSize=21;" vertex="1" parent="gZSN7CshybFUfBQ97hwv-1">
          <mxGeometry x="420" y="920" width="120" height="20" as="geometry" />
        </mxCell>
        <mxCell id="gZSN7CshybFUfBQ97hwv-11" value="" style="outlineConnect=0;fontColor=#232F3E;gradientColor=#F78E04;gradientDirection=north;fillColor=#D05C17;strokeColor=#ffffff;dashed=0;verticalLabelPosition=bottom;verticalAlign=top;align=center;html=1;fontSize=12;fontStyle=0;aspect=fixed;shape=mxgraph.aws4.resourceIcon;resIcon=mxgraph.aws4.ec2;" vertex="1" parent="gZSN7CshybFUfBQ97hwv-1">
          <mxGeometry x="880" y="1113" width="78" height="78" as="geometry" />
        </mxCell>
        <mxCell id="gZSN7CshybFUfBQ97hwv-12" value="" style="outlineConnect=0;fontColor=#232F3E;gradientColor=#F78E04;gradientDirection=north;fillColor=#D05C17;strokeColor=#ffffff;dashed=0;verticalLabelPosition=bottom;verticalAlign=top;align=center;html=1;fontSize=12;fontStyle=0;aspect=fixed;shape=mxgraph.aws4.resourceIcon;resIcon=mxgraph.aws4.ec2;" vertex="1" parent="gZSN7CshybFUfBQ97hwv-1">
          <mxGeometry x="890" y="1123" width="78" height="78" as="geometry" />
        </mxCell>
        <mxCell id="gZSN7CshybFUfBQ97hwv-13" value="" style="outlineConnect=0;fontColor=#232F3E;gradientColor=#F78E04;gradientDirection=north;fillColor=#D05C17;strokeColor=#ffffff;dashed=0;verticalLabelPosition=bottom;verticalAlign=top;align=center;html=1;fontSize=12;fontStyle=0;aspect=fixed;shape=mxgraph.aws4.resourceIcon;resIcon=mxgraph.aws4.ec2;" vertex="1" parent="gZSN7CshybFUfBQ97hwv-1">
          <mxGeometry x="900" y="1133" width="78" height="78" as="geometry" />
        </mxCell>
        <mxCell id="gZSN7CshybFUfBQ97hwv-14" value="" style="outlineConnect=0;fontColor=#232F3E;gradientColor=#F78E04;gradientDirection=north;fillColor=#D05C17;strokeColor=#ffffff;dashed=0;verticalLabelPosition=bottom;verticalAlign=top;align=center;html=1;fontSize=12;fontStyle=0;aspect=fixed;shape=mxgraph.aws4.resourceIcon;resIcon=mxgraph.aws4.ec2;" vertex="1" parent="gZSN7CshybFUfBQ97hwv-1">
          <mxGeometry x="910" y="1143" width="78" height="78" as="geometry" />
        </mxCell>
        <mxCell id="gZSN7CshybFUfBQ97hwv-15" value="" style="outlineConnect=0;fontColor=#232F3E;gradientColor=#F78E04;gradientDirection=north;fillColor=#D05C17;strokeColor=#ffffff;dashed=0;verticalLabelPosition=bottom;verticalAlign=top;align=center;html=1;fontSize=12;fontStyle=0;aspect=fixed;shape=mxgraph.aws4.resourceIcon;resIcon=mxgraph.aws4.ec2;" vertex="1" parent="gZSN7CshybFUfBQ97hwv-1">
          <mxGeometry x="920" y="1153" width="78" height="78" as="geometry" />
        </mxCell>
        <mxCell id="gZSN7CshybFUfBQ97hwv-16" value="elb334455.amazonaws.com" style="outlineConnect=0;fontColor=#232F3E;gradientColor=none;fillColor=#5A30B5;strokeColor=none;dashed=0;verticalLabelPosition=bottom;verticalAlign=top;align=center;html=1;fontSize=12;fontStyle=0;aspect=fixed;pointerEvents=1;shape=mxgraph.aws4.network_load_balancer;" vertex="1" parent="gZSN7CshybFUfBQ97hwv-1">
          <mxGeometry x="780" y="1123" width="78" height="78" as="geometry" />
        </mxCell>
        <mxCell id="gZSN7CshybFUfBQ97hwv-17" value="" style="shape=flexArrow;endArrow=classic;html=1;fontSize=21;" edge="1" parent="gZSN7CshybFUfBQ97hwv-1">
          <mxGeometry width="50" height="50" relative="1" as="geometry">
            <mxPoint x="540" y="1160" as="sourcePoint" />
            <mxPoint x="750" y="1178" as="targetPoint" />
          </mxGeometry>
        </mxCell>
        <mxCell id="gZSN7CshybFUfBQ97hwv-18" value="ORIGIN #2&lt;br&gt;TTL = 0" style="text;html=1;strokeColor=none;fillColor=none;align=center;verticalAlign=middle;whiteSpace=wrap;rounded=0;fontSize=21;" vertex="1" parent="gZSN7CshybFUfBQ97hwv-1">
          <mxGeometry x="540" y="1211" width="140" height="20" as="geometry" />
        </mxCell>
        <mxCell id="gZSN7CshybFUfBQ97hwv-22" value="" style="outlineConnect=0;dashed=0;verticalLabelPosition=bottom;verticalAlign=top;align=center;html=1;shape=mxgraph.aws3.waf;fillColor=#759C3E;gradientColor=none;fontSize=21;" vertex="1" parent="gZSN7CshybFUfBQ97hwv-1">
          <mxGeometry x="320" y="960" width="80" height="90" as="geometry" />
        </mxCell>
      </root>
    </mxGraphModel>
  </diagram>
  <diagram id="UZXVwRF-d_FH7TY89E0O" name="Page-2">
    <mxGraphModel dx="1422" dy="832" grid="1" gridSize="10" guides="1" tooltips="1" connect="1" arrows="1" fold="1" page="1" pageScale="1" pageWidth="1169" pageHeight="827" math="0" shadow="0">
      <root>
        <mxCell id="YCNRzfLoJxYzP4P9ZyRO-0" />
        <mxCell id="YCNRzfLoJxYzP4P9ZyRO-1" parent="YCNRzfLoJxYzP4P9ZyRO-0" />
        <mxCell id="YCNRzfLoJxYzP4P9ZyRO-2" value="Architecting on AWS" style="text;html=1;resizable=0;points=[];autosize=1;align=left;verticalAlign=top;spacingTop=-4;fontSize=30;fontStyle=1" vertex="1" parent="YCNRzfLoJxYzP4P9ZyRO-1">
          <mxGeometry x="56.5" y="64.5" width="310" height="40" as="geometry" />
        </mxCell>
        <mxCell id="YCNRzfLoJxYzP4P9ZyRO-3" value="Siemens 28th Septemeber" style="text;html=1;resizable=0;points=[];autosize=1;align=left;verticalAlign=top;spacingTop=-4;fontSize=16;" vertex="1" parent="YCNRzfLoJxYzP4P9ZyRO-1">
          <mxGeometry x="56.5" y="114.5" width="200" height="20" as="geometry" />
        </mxCell>
        <mxCell id="YCNRzfLoJxYzP4P9ZyRO-4" value="" style="line;strokeWidth=2;html=1;fontSize=14;" vertex="1" parent="YCNRzfLoJxYzP4P9ZyRO-1">
          <mxGeometry x="52.5" y="139.5" width="1060" height="10" as="geometry" />
        </mxCell>
      </root>
    </mxGraphModel>
  </diagram>
  <diagram name="Copy of Page-2" id="9x5_3ffPf5DHo3nceKft">
    <mxGraphModel dx="1422" dy="834" grid="1" gridSize="10" guides="1" tooltips="1" connect="1" arrows="1" fold="1" page="1" pageScale="1" pageWidth="1169" pageHeight="827" math="0" shadow="0">
      <root>
        <mxCell id="_yKPEcb2p0WiloxshdZu-0" />
        <mxCell id="_yKPEcb2p0WiloxshdZu-1" parent="_yKPEcb2p0WiloxshdZu-0" />
        <mxCell id="y0S5EXHgXKVRydGiwz_9-23" value="" style="shape=cylinder3;whiteSpace=wrap;html=1;boundedLbl=1;backgroundOutline=1;size=15;fontSize=21;" vertex="1" parent="_yKPEcb2p0WiloxshdZu-1">
          <mxGeometry x="410" y="540" width="175" height="200" as="geometry" />
        </mxCell>
        <mxCell id="_yKPEcb2p0WiloxshdZu-2" value="Architecting on AWS" style="text;html=1;resizable=0;points=[];autosize=1;align=left;verticalAlign=top;spacingTop=-4;fontSize=30;fontStyle=1" vertex="1" parent="_yKPEcb2p0WiloxshdZu-1">
          <mxGeometry x="56.5" y="64.5" width="310" height="40" as="geometry" />
        </mxCell>
        <mxCell id="_yKPEcb2p0WiloxshdZu-3" value="Siemens 28th Septemeber" style="text;html=1;resizable=0;points=[];autosize=1;align=left;verticalAlign=top;spacingTop=-4;fontSize=16;" vertex="1" parent="_yKPEcb2p0WiloxshdZu-1">
          <mxGeometry x="56.5" y="114.5" width="200" height="20" as="geometry" />
        </mxCell>
        <mxCell id="_yKPEcb2p0WiloxshdZu-4" value="" style="line;strokeWidth=2;html=1;fontSize=14;" vertex="1" parent="_yKPEcb2p0WiloxshdZu-1">
          <mxGeometry x="52.5" y="139.5" width="1060" height="10" as="geometry" />
        </mxCell>
        <mxCell id="y0S5EXHgXKVRydGiwz_9-0" value="W3" style="rounded=1;whiteSpace=wrap;html=1;align=left;fontSize=21;" vertex="1" parent="_yKPEcb2p0WiloxshdZu-1">
          <mxGeometry x="500" y="420" width="120" height="60" as="geometry" />
        </mxCell>
        <mxCell id="y0S5EXHgXKVRydGiwz_9-1" value="W4" style="rounded=1;whiteSpace=wrap;html=1;align=left;fontSize=21;" vertex="1" parent="_yKPEcb2p0WiloxshdZu-1">
          <mxGeometry x="680" y="420" width="120" height="60" as="geometry" />
        </mxCell>
        <mxCell id="y0S5EXHgXKVRydGiwz_9-2" value="W2" style="rounded=1;whiteSpace=wrap;html=1;align=left;fontSize=21;" vertex="1" parent="_yKPEcb2p0WiloxshdZu-1">
          <mxGeometry x="340" y="420" width="120" height="60" as="geometry" />
        </mxCell>
        <mxCell id="y0S5EXHgXKVRydGiwz_9-3" value="W1" style="rounded=1;whiteSpace=wrap;html=1;align=left;fontSize=21;" vertex="1" parent="_yKPEcb2p0WiloxshdZu-1">
          <mxGeometry x="151.5" y="420" width="120" height="60" as="geometry" />
        </mxCell>
        <mxCell id="y0S5EXHgXKVRydGiwz_9-4" value="load balancer" style="rounded=1;whiteSpace=wrap;html=1;align=left;fontSize=21;" vertex="1" parent="_yKPEcb2p0WiloxshdZu-1">
          <mxGeometry x="450" y="270" width="120" height="60" as="geometry" />
        </mxCell>
        <mxCell id="y0S5EXHgXKVRydGiwz_9-5" value="Alice" style="shape=umlActor;verticalLabelPosition=bottom;verticalAlign=top;html=1;outlineConnect=0;align=left;fontSize=21;" vertex="1" parent="_yKPEcb2p0WiloxshdZu-1">
          <mxGeometry x="290" y="160" width="30" height="60" as="geometry" />
        </mxCell>
        <mxCell id="y0S5EXHgXKVRydGiwz_9-6" value="" style="endArrow=classic;html=1;fontSize=21;" edge="1" parent="_yKPEcb2p0WiloxshdZu-1">
          <mxGeometry width="50" height="50" relative="1" as="geometry">
            <mxPoint x="340" y="190" as="sourcePoint" />
            <mxPoint x="500" y="260" as="targetPoint" />
          </mxGeometry>
        </mxCell>
        <mxCell id="y0S5EXHgXKVRydGiwz_9-7" value="" style="endArrow=classic;html=1;fontSize=21;" edge="1" parent="_yKPEcb2p0WiloxshdZu-1" source="y0S5EXHgXKVRydGiwz_9-4" target="y0S5EXHgXKVRydGiwz_9-3">
          <mxGeometry width="50" height="50" relative="1" as="geometry">
            <mxPoint x="560" y="440" as="sourcePoint" />
            <mxPoint x="610" y="390" as="targetPoint" />
          </mxGeometry>
        </mxCell>
        <mxCell id="y0S5EXHgXKVRydGiwz_9-8" value="Alice&lt;br&gt;Session State" style="shape=parallelogram;perimeter=parallelogramPerimeter;whiteSpace=wrap;html=1;fixedSize=1;fontSize=21;" vertex="1" parent="_yKPEcb2p0WiloxshdZu-1">
          <mxGeometry x="437.5" y="570" width="120" height="60" as="geometry" />
        </mxCell>
        <mxCell id="y0S5EXHgXKVRydGiwz_9-10" value="Bob" style="shape=umlActor;verticalLabelPosition=bottom;verticalAlign=top;html=1;outlineConnect=0;align=left;fontSize=21;" vertex="1" parent="_yKPEcb2p0WiloxshdZu-1">
          <mxGeometry x="660" y="160" width="30" height="60" as="geometry" />
        </mxCell>
        <mxCell id="y0S5EXHgXKVRydGiwz_9-11" value="" style="endArrow=classic;html=1;fontSize=21;entryX=0.675;entryY=-0.017;entryDx=0;entryDy=0;entryPerimeter=0;" edge="1" parent="_yKPEcb2p0WiloxshdZu-1" target="y0S5EXHgXKVRydGiwz_9-4">
          <mxGeometry width="50" height="50" relative="1" as="geometry">
            <mxPoint x="640" y="210" as="sourcePoint" />
            <mxPoint x="610" y="360" as="targetPoint" />
          </mxGeometry>
        </mxCell>
        <mxCell id="y0S5EXHgXKVRydGiwz_9-12" value="" style="endArrow=classic;html=1;fontSize=21;" edge="1" parent="_yKPEcb2p0WiloxshdZu-1" source="y0S5EXHgXKVRydGiwz_9-4" target="y0S5EXHgXKVRydGiwz_9-0">
          <mxGeometry width="50" height="50" relative="1" as="geometry">
            <mxPoint x="460.29999999999995" y="340" as="sourcePoint" />
            <mxPoint x="281.20000000000005" y="430" as="targetPoint" />
          </mxGeometry>
        </mxCell>
        <mxCell id="y0S5EXHgXKVRydGiwz_9-13" value="Bob&lt;br&gt;Session State" style="shape=parallelogram;perimeter=parallelogramPerimeter;whiteSpace=wrap;html=1;fixedSize=1;fontSize=21;" vertex="1" parent="_yKPEcb2p0WiloxshdZu-1">
          <mxGeometry x="430" y="650" width="120" height="60" as="geometry" />
        </mxCell>
        <mxCell id="y0S5EXHgXKVRydGiwz_9-14" value="Actor" style="shape=umlActor;verticalLabelPosition=bottom;verticalAlign=top;html=1;outlineConnect=0;fontSize=21;" vertex="1" parent="_yKPEcb2p0WiloxshdZu-1">
          <mxGeometry x="800" y="170" width="30" height="60" as="geometry" />
        </mxCell>
        <mxCell id="y0S5EXHgXKVRydGiwz_9-15" value="Actor" style="shape=umlActor;verticalLabelPosition=bottom;verticalAlign=top;html=1;outlineConnect=0;fontSize=21;" vertex="1" parent="_yKPEcb2p0WiloxshdZu-1">
          <mxGeometry x="810" y="180" width="30" height="60" as="geometry" />
        </mxCell>
        <mxCell id="y0S5EXHgXKVRydGiwz_9-16" value="Actor" style="shape=umlActor;verticalLabelPosition=bottom;verticalAlign=top;html=1;outlineConnect=0;fontSize=21;" vertex="1" parent="_yKPEcb2p0WiloxshdZu-1">
          <mxGeometry x="820" y="190" width="30" height="60" as="geometry" />
        </mxCell>
        <mxCell id="y0S5EXHgXKVRydGiwz_9-17" value="Actor" style="shape=umlActor;verticalLabelPosition=bottom;verticalAlign=top;html=1;outlineConnect=0;fontSize=21;" vertex="1" parent="_yKPEcb2p0WiloxshdZu-1">
          <mxGeometry x="830" y="200" width="30" height="60" as="geometry" />
        </mxCell>
        <mxCell id="y0S5EXHgXKVRydGiwz_9-18" value="Actor" style="shape=umlActor;verticalLabelPosition=bottom;verticalAlign=top;html=1;outlineConnect=0;fontSize=21;" vertex="1" parent="_yKPEcb2p0WiloxshdZu-1">
          <mxGeometry x="840" y="210" width="30" height="60" as="geometry" />
        </mxCell>
        <mxCell id="y0S5EXHgXKVRydGiwz_9-19" value="Actor" style="shape=umlActor;verticalLabelPosition=bottom;verticalAlign=top;html=1;outlineConnect=0;fontSize=21;" vertex="1" parent="_yKPEcb2p0WiloxshdZu-1">
          <mxGeometry x="850" y="220" width="30" height="60" as="geometry" />
        </mxCell>
        <mxCell id="y0S5EXHgXKVRydGiwz_9-20" value="Actor" style="shape=umlActor;verticalLabelPosition=bottom;verticalAlign=top;html=1;outlineConnect=0;fontSize=21;" vertex="1" parent="_yKPEcb2p0WiloxshdZu-1">
          <mxGeometry x="860" y="230" width="30" height="60" as="geometry" />
        </mxCell>
        <mxCell id="y0S5EXHgXKVRydGiwz_9-21" value="Actor" style="shape=umlActor;verticalLabelPosition=bottom;verticalAlign=top;html=1;outlineConnect=0;fontSize=21;" vertex="1" parent="_yKPEcb2p0WiloxshdZu-1">
          <mxGeometry x="870" y="240" width="30" height="60" as="geometry" />
        </mxCell>
        <mxCell id="y0S5EXHgXKVRydGiwz_9-22" value="W5" style="rounded=1;whiteSpace=wrap;html=1;align=left;fontSize=21;" vertex="1" parent="_yKPEcb2p0WiloxshdZu-1">
          <mxGeometry x="840" y="420" width="120" height="60" as="geometry" />
        </mxCell>
        <mxCell id="y0S5EXHgXKVRydGiwz_9-24" value="" style="shape=flexArrow;endArrow=classic;startArrow=classic;html=1;fontSize=21;" edge="1" parent="_yKPEcb2p0WiloxshdZu-1">
          <mxGeometry width="50" height="50" relative="1" as="geometry">
            <mxPoint x="560" y="530" as="sourcePoint" />
            <mxPoint x="610" y="480" as="targetPoint" />
          </mxGeometry>
        </mxCell>
        <mxCell id="y0S5EXHgXKVRydGiwz_9-25" value="" style="shape=flexArrow;endArrow=classic;startArrow=classic;html=1;fontSize=21;entryX=0.358;entryY=1.05;entryDx=0;entryDy=0;entryPerimeter=0;" edge="1" parent="_yKPEcb2p0WiloxshdZu-1" target="y0S5EXHgXKVRydGiwz_9-1">
          <mxGeometry width="50" height="50" relative="1" as="geometry">
            <mxPoint x="570" y="540" as="sourcePoint" />
            <mxPoint x="620" y="490" as="targetPoint" />
          </mxGeometry>
        </mxCell>
        <mxCell id="y0S5EXHgXKVRydGiwz_9-26" value="" style="shape=flexArrow;endArrow=classic;startArrow=classic;html=1;fontSize=21;exitX=0.983;exitY=0.11;exitDx=0;exitDy=0;exitPerimeter=0;" edge="1" parent="_yKPEcb2p0WiloxshdZu-1" source="y0S5EXHgXKVRydGiwz_9-23" target="y0S5EXHgXKVRydGiwz_9-22">
          <mxGeometry width="50" height="50" relative="1" as="geometry">
            <mxPoint x="580" y="550" as="sourcePoint" />
            <mxPoint x="732.96" y="493" as="targetPoint" />
          </mxGeometry>
        </mxCell>
        <mxCell id="y0S5EXHgXKVRydGiwz_9-27" value="" style="shape=flexArrow;endArrow=classic;startArrow=classic;html=1;fontSize=21;" edge="1" parent="_yKPEcb2p0WiloxshdZu-1" source="y0S5EXHgXKVRydGiwz_9-23">
          <mxGeometry width="50" height="50" relative="1" as="geometry">
            <mxPoint x="366.5" y="530" as="sourcePoint" />
            <mxPoint x="416.5" y="480" as="targetPoint" />
          </mxGeometry>
        </mxCell>
      </root>
    </mxGraphModel>
  </diagram>
  <diagram name="Copy of Copy of Page-2" id="E1Ks1SMsyXdLb7zgd0rp">
    <mxGraphModel dx="1422" dy="832" grid="1" gridSize="10" guides="1" tooltips="1" connect="1" arrows="1" fold="1" page="1" pageScale="1" pageWidth="1169" pageHeight="827" math="0" shadow="0">
      <root>
        <mxCell id="TUdX4UE_EDhptk9a88e0-0" />
        <mxCell id="TUdX4UE_EDhptk9a88e0-1" parent="TUdX4UE_EDhptk9a88e0-0" />
        <mxCell id="RMNcIG4oqSD0G157YWJ2-11" value="SQS DEAD LETTER QUEUE" style="rounded=1;whiteSpace=wrap;html=1;align=center;fontSize=21;" vertex="1" parent="TUdX4UE_EDhptk9a88e0-1">
          <mxGeometry x="190" y="550" width="550" height="130" as="geometry" />
        </mxCell>
        <mxCell id="TUdX4UE_EDhptk9a88e0-2" value="Architecting on AWS" style="text;html=1;resizable=0;points=[];autosize=1;align=left;verticalAlign=top;spacingTop=-4;fontSize=30;fontStyle=1" vertex="1" parent="TUdX4UE_EDhptk9a88e0-1">
          <mxGeometry x="56.5" y="64.5" width="310" height="40" as="geometry" />
        </mxCell>
        <mxCell id="TUdX4UE_EDhptk9a88e0-3" value="Siemens 28th Septemeber" style="text;html=1;resizable=0;points=[];autosize=1;align=left;verticalAlign=top;spacingTop=-4;fontSize=16;" vertex="1" parent="TUdX4UE_EDhptk9a88e0-1">
          <mxGeometry x="56.5" y="114.5" width="200" height="20" as="geometry" />
        </mxCell>
        <mxCell id="TUdX4UE_EDhptk9a88e0-4" value="" style="line;strokeWidth=2;html=1;fontSize=14;" vertex="1" parent="TUdX4UE_EDhptk9a88e0-1">
          <mxGeometry x="52.5" y="139.5" width="1060" height="10" as="geometry" />
        </mxCell>
        <mxCell id="RMNcIG4oqSD0G157YWJ2-0" value="APP A" style="rounded=1;whiteSpace=wrap;html=1;align=center;fontSize=21;" vertex="1" parent="TUdX4UE_EDhptk9a88e0-1">
          <mxGeometry x="110" y="250" width="120" height="60" as="geometry" />
        </mxCell>
        <mxCell id="RMNcIG4oqSD0G157YWJ2-1" value="APP B&lt;br&gt;instance 1" style="rounded=1;whiteSpace=wrap;html=1;align=center;fontSize=21;" vertex="1" parent="TUdX4UE_EDhptk9a88e0-1">
          <mxGeometry x="870" y="240" width="120" height="60" as="geometry" />
        </mxCell>
        <mxCell id="RMNcIG4oqSD0G157YWJ2-2" value="SQS QUEUE" style="rounded=1;whiteSpace=wrap;html=1;align=center;fontSize=21;" vertex="1" parent="TUdX4UE_EDhptk9a88e0-1">
          <mxGeometry x="190" y="400" width="720" height="130" as="geometry" />
        </mxCell>
        <mxCell id="RMNcIG4oqSD0G157YWJ2-4" value="" style="shape=flexArrow;endArrow=classic;html=1;fontSize=21;entryX=0.955;entryY=0.019;entryDx=0;entryDy=0;entryPerimeter=0;" edge="1" parent="TUdX4UE_EDhptk9a88e0-1" source="RMNcIG4oqSD0G157YWJ2-1" target="RMNcIG4oqSD0G157YWJ2-2">
          <mxGeometry width="50" height="50" relative="1" as="geometry">
            <mxPoint x="520" y="420" as="sourcePoint" />
            <mxPoint x="570" y="370" as="targetPoint" />
          </mxGeometry>
        </mxCell>
        <mxCell id="RMNcIG4oqSD0G157YWJ2-5" value="MSG1" style="rounded=1;whiteSpace=wrap;html=1;align=left;fontSize=21;" vertex="1" parent="TUdX4UE_EDhptk9a88e0-1">
          <mxGeometry x="820" y="260" width="63.5" height="60" as="geometry" />
        </mxCell>
        <mxCell id="RMNcIG4oqSD0G157YWJ2-6" value="Message Visibility&lt;br&gt;Timeout starts e.g. 30 secs" style="text;html=1;strokeColor=none;fillColor=none;align=center;verticalAlign=middle;whiteSpace=wrap;rounded=0;fontSize=21;" vertex="1" parent="TUdX4UE_EDhptk9a88e0-1">
          <mxGeometry x="843.5" y="580" width="196.5" height="20" as="geometry" />
        </mxCell>
        <mxCell id="RMNcIG4oqSD0G157YWJ2-8" value="APP B&lt;br&gt;instance 2" style="rounded=1;whiteSpace=wrap;html=1;align=center;fontSize=21;" vertex="1" parent="TUdX4UE_EDhptk9a88e0-1">
          <mxGeometry x="980" y="354" width="120" height="60" as="geometry" />
        </mxCell>
        <mxCell id="RMNcIG4oqSD0G157YWJ2-9" value="" style="shape=flexArrow;endArrow=classic;html=1;fontSize=21;entryX=0.955;entryY=0.019;entryDx=0;entryDy=0;entryPerimeter=0;" edge="1" parent="TUdX4UE_EDhptk9a88e0-1">
          <mxGeometry width="50" height="50" relative="1" as="geometry">
            <mxPoint x="970" y="390" as="sourcePoint" />
            <mxPoint x="887.5999999999999" y="412.47" as="targetPoint" />
          </mxGeometry>
        </mxCell>
        <mxCell id="RMNcIG4oqSD0G157YWJ2-12" value="MSG1&lt;br&gt;myapp id = 55338" style="rounded=1;whiteSpace=wrap;html=1;align=left;fontSize=21;" vertex="1" parent="TUdX4UE_EDhptk9a88e0-1">
          <mxGeometry x="690" y="430" width="180" height="60" as="geometry" />
        </mxCell>
        <mxCell id="RMNcIG4oqSD0G157YWJ2-13" value="MSG1" style="rounded=1;whiteSpace=wrap;html=1;align=left;fontSize=21;" vertex="1" parent="TUdX4UE_EDhptk9a88e0-1">
          <mxGeometry x="990" y="410" width="63.5" height="60" as="geometry" />
        </mxCell>
        <mxCell id="RMNcIG4oqSD0G157YWJ2-14" value="DLQ PROCESSOR" style="rounded=1;whiteSpace=wrap;html=1;align=left;fontSize=21;" vertex="1" parent="TUdX4UE_EDhptk9a88e0-1">
          <mxGeometry x="780" y="740" width="120" height="60" as="geometry" />
        </mxCell>
        <mxCell id="RMNcIG4oqSD0G157YWJ2-15" value="" style="shape=flexArrow;endArrow=classic;html=1;fontSize=21;" edge="1" parent="TUdX4UE_EDhptk9a88e0-1" target="RMNcIG4oqSD0G157YWJ2-11">
          <mxGeometry width="50" height="50" relative="1" as="geometry">
            <mxPoint x="802.4" y="740" as="sourcePoint" />
            <mxPoint x="719.9999999999999" y="762.47" as="targetPoint" />
          </mxGeometry>
        </mxCell>
      </root>
    </mxGraphModel>
  </diagram>
  <diagram id="XXDU0pTtZA6GQhGkE395" name="Page-6">
    <mxGraphModel dx="1422" dy="832" grid="1" gridSize="10" guides="1" tooltips="1" connect="1" arrows="1" fold="1" page="1" pageScale="1" pageWidth="1169" pageHeight="827" math="0" shadow="0">
      <root>
        <mxCell id="Fh8DKmF8HJJgV3wI6u8Y-0" />
        <mxCell id="Fh8DKmF8HJJgV3wI6u8Y-1" parent="Fh8DKmF8HJJgV3wI6u8Y-0" />
        <mxCell id="Fh8DKmF8HJJgV3wI6u8Y-9" value="ELASTIC CONTAINER SERVICE (ECS)&lt;br&gt;CLUSTER&lt;br&gt;FARGATE" style="ellipse;whiteSpace=wrap;html=1;fontSize=21;" vertex="1" parent="Fh8DKmF8HJJgV3wI6u8Y-1">
          <mxGeometry x="250" y="100" width="790" height="500" as="geometry" />
        </mxCell>
        <mxCell id="Fh8DKmF8HJJgV3wI6u8Y-10" value="myapp ecs service definition&lt;br&gt;replicas&amp;nbsp; =3&amp;nbsp;&lt;br&gt;task = task23&lt;br&gt;load balancer = ALB" style="rounded=1;whiteSpace=wrap;html=1;align=left;fontSize=21;fillColor=#d5e8d4;strokeColor=#82b366;" vertex="1" parent="Fh8DKmF8HJJgV3wI6u8Y-1">
          <mxGeometry x="390" y="560" width="360" height="100" as="geometry" />
        </mxCell>
        <mxCell id="Fh8DKmF8HJJgV3wI6u8Y-3" value="httpd" style="rounded=1;whiteSpace=wrap;html=1;align=center;fontSize=21;fillColor=#60a917;strokeColor=#2D7600;fontColor=#ffffff;" vertex="1" parent="Fh8DKmF8HJJgV3wI6u8Y-1">
          <mxGeometry x="290" y="200" width="120" height="60" as="geometry" />
        </mxCell>
        <mxCell id="Fh8DKmF8HJJgV3wI6u8Y-5" value="httpd" style="rounded=1;whiteSpace=wrap;html=1;align=center;fontSize=21;fillColor=#60a917;strokeColor=#2D7600;fontColor=#ffffff;" vertex="1" parent="Fh8DKmF8HJJgV3wI6u8Y-1">
          <mxGeometry x="430" y="200" width="120" height="60" as="geometry" />
        </mxCell>
        <mxCell id="Fh8DKmF8HJJgV3wI6u8Y-8" value="httpd" style="rounded=1;whiteSpace=wrap;html=1;align=center;fontSize=21;fillColor=#60a917;strokeColor=#2D7600;fontColor=#ffffff;" vertex="1" parent="Fh8DKmF8HJJgV3wI6u8Y-1">
          <mxGeometry x="780" y="200" width="120" height="60" as="geometry" />
        </mxCell>
        <mxCell id="Fh8DKmF8HJJgV3wI6u8Y-11" value="task definition&lt;br&gt;container image = httpd&lt;br&gt;cpu/ram" style="rounded=1;whiteSpace=wrap;html=1;align=left;fontSize=21;fillColor=#d5e8d4;strokeColor=#82b366;" vertex="1" parent="Fh8DKmF8HJJgV3wI6u8Y-1">
          <mxGeometry x="880" y="560" width="240" height="90" as="geometry" />
        </mxCell>
        <mxCell id="Fh8DKmF8HJJgV3wI6u8Y-12" value="" style="shape=flexArrow;endArrow=classic;html=1;fontSize=21;exitX=1;exitY=0.5;exitDx=0;exitDy=0;entryX=-0.004;entryY=0.367;entryDx=0;entryDy=0;entryPerimeter=0;" edge="1" parent="Fh8DKmF8HJJgV3wI6u8Y-1" source="Fh8DKmF8HJJgV3wI6u8Y-10" target="Fh8DKmF8HJJgV3wI6u8Y-11">
          <mxGeometry width="50" height="50" relative="1" as="geometry">
            <mxPoint x="660" y="530" as="sourcePoint" />
            <mxPoint x="710" y="480" as="targetPoint" />
          </mxGeometry>
        </mxCell>
      </root>
    </mxGraphModel>
  </diagram>
  <diagram id="KRfXDmHhLc4Y_1C47aOk" name="Page-7">
    <mxGraphModel dx="1422" dy="832" grid="1" gridSize="10" guides="1" tooltips="1" connect="1" arrows="1" fold="1" page="1" pageScale="1" pageWidth="1169" pageHeight="827" math="0" shadow="0">
      <root>
        <mxCell id="2eO-Mt5QUpVNyuRQr-vx-0" />
        <mxCell id="2eO-Mt5QUpVNyuRQr-vx-1" parent="2eO-Mt5QUpVNyuRQr-vx-0" />
        <mxCell id="2eO-Mt5QUpVNyuRQr-vx-9" value="ELASTIC KUBERNETES SERVICE (EKS)&lt;br&gt;FARGATE CLUSTER" style="ellipse;whiteSpace=wrap;html=1;fontSize=21;" vertex="1" parent="2eO-Mt5QUpVNyuRQr-vx-1">
          <mxGeometry x="10" y="50" width="860" height="410" as="geometry" />
        </mxCell>
      </root>
    </mxGraphModel>
  </diagram>
  <diagram id="3SImR9osigd5gvus3GeN" name="Page-8">
    <mxGraphModel dx="1038" dy="569" grid="1" gridSize="10" guides="1" tooltips="1" connect="1" arrows="1" fold="1" page="1" pageScale="1" pageWidth="1169" pageHeight="827" math="0" shadow="0">
      <root>
        <mxCell id="rv17s3w778HalhePFf5a-0" />
        <mxCell id="rv17s3w778HalhePFf5a-1" parent="rv17s3w778HalhePFf5a-0" />
        <mxCell id="rv17s3w778HalhePFf5a-2" value="" style="endArrow=none;html=1;fontSize=21;strokeWidth=7;" edge="1" parent="rv17s3w778HalhePFf5a-1">
          <mxGeometry width="50" height="50" relative="1" as="geometry">
            <mxPoint x="530" y="720" as="sourcePoint" />
            <mxPoint x="530" y="200" as="targetPoint" />
          </mxGeometry>
        </mxCell>
        <mxCell id="rv17s3w778HalhePFf5a-3" value="api.myapp.siemens.com" style="text;html=1;strokeColor=none;fillColor=none;align=center;verticalAlign=middle;whiteSpace=wrap;rounded=0;fontSize=28;" vertex="1" parent="rv17s3w778HalhePFf5a-1">
          <mxGeometry x="545" y="150" width="40" height="20" as="geometry" />
        </mxCell>
        <mxCell id="rv17s3w778HalhePFf5a-4" value="/customers" style="text;html=1;strokeColor=none;fillColor=none;align=center;verticalAlign=middle;whiteSpace=wrap;rounded=0;fontSize=28;" vertex="1" parent="rv17s3w778HalhePFf5a-1">
          <mxGeometry x="610" y="490" width="40" height="20" as="geometry" />
        </mxCell>
        <mxCell id="rv17s3w778HalhePFf5a-6" value="/orders" style="text;html=1;strokeColor=none;fillColor=none;align=center;verticalAlign=middle;whiteSpace=wrap;rounded=0;fontSize=28;" vertex="1" parent="rv17s3w778HalhePFf5a-1">
          <mxGeometry x="590" y="310" width="40" height="20" as="geometry" />
        </mxCell>
        <mxCell id="rv17s3w778HalhePFf5a-8" value="GET" style="text;html=1;strokeColor=none;fillColor=none;align=center;verticalAlign=middle;whiteSpace=wrap;rounded=0;fontSize=28;" vertex="1" parent="rv17s3w778HalhePFf5a-1">
          <mxGeometry x="620" y="350" width="40" height="20" as="geometry" />
        </mxCell>
        <mxCell id="rv17s3w778HalhePFf5a-9" value="Uesr/application&lt;br&gt;http get on&lt;br&gt;https://api.myapp.siemens.com/orders" style="shape=umlActor;verticalLabelPosition=bottom;verticalAlign=top;html=1;outlineConnect=0;align=left;fontSize=28;" vertex="1" parent="rv17s3w778HalhePFf5a-1">
          <mxGeometry x="30" y="370" width="30" height="60" as="geometry" />
        </mxCell>
        <mxCell id="rv17s3w778HalhePFf5a-10" value="" style="shape=flexArrow;endArrow=classic;html=1;strokeWidth=7;fontSize=28;" edge="1" parent="rv17s3w778HalhePFf5a-1">
          <mxGeometry width="50" height="50" relative="1" as="geometry">
            <mxPoint x="90" y="410" as="sourcePoint" />
            <mxPoint x="410" y="210" as="targetPoint" />
          </mxGeometry>
        </mxCell>
        <mxCell id="rv17s3w778HalhePFf5a-12" value="" style="shape=flexArrow;endArrow=classic;html=1;strokeWidth=7;fontSize=28;exitX=0.75;exitY=1;exitDx=0;exitDy=0;" edge="1" parent="rv17s3w778HalhePFf5a-1" source="rv17s3w778HalhePFf5a-8" target="rv17s3w778HalhePFf5a-14">
          <mxGeometry width="50" height="50" relative="1" as="geometry">
            <mxPoint x="530" y="550" as="sourcePoint" />
            <mxPoint x="580" y="500" as="targetPoint" />
          </mxGeometry>
        </mxCell>
        <mxCell id="rv17s3w778HalhePFf5a-13" value="" style="rhombus;whiteSpace=wrap;html=1;fontSize=28;" vertex="1" parent="rv17s3w778HalhePFf5a-1">
          <mxGeometry x="520" y="480" width="80" height="80" as="geometry" />
        </mxCell>
        <mxCell id="rv17s3w778HalhePFf5a-14" value="" style="outlineConnect=0;fontColor=#232F3E;gradientColor=#F78E04;gradientDirection=north;fillColor=#D05C17;strokeColor=#ffffff;dashed=0;verticalLabelPosition=bottom;verticalAlign=top;align=center;html=1;fontSize=12;fontStyle=0;aspect=fixed;shape=mxgraph.aws4.resourceIcon;resIcon=mxgraph.aws4.lambda;" vertex="1" parent="rv17s3w778HalhePFf5a-1">
          <mxGeometry x="1000" y="402" width="78" height="78" as="geometry" />
        </mxCell>
      </root>
    </mxGraphModel>
  </diagram>
</mxfile>
